<?xml version="1.0" ?><svg id="Layer_1" style="enable-background:new 0 0 96 96;" version="1.1" viewBox="0 0 96 96" xml:space="preserve" xmlns="http://www.w3.org/2000/svg" xmlns:xlink="http://www.w3.org/1999/xlink"><path d="M4.5,76c8.2,5.1,17.5,7.7,27.1,7.7c14.8,0,28.3-5.6,38.1-16.7C78,57.6,83,44.9,83,32.3c0-0.1,0-0.3,0-0.4l0-1.9l1.5-1.2  c2.8-2.3,5.3-5,7.4-8l-5.2-0.5l2.3-5.1c0.2-0.4,0.4-0.9,0.5-1.4c-2.8,1.6-5.9,2.9-9.1,3.7l-2,0.5l-1.6-1.4  c-3.3-2.8-7.4-4.4-11.8-4.4c-9.9,0-17.9,8-18,17.8l0,4.6L42.4,34C29.7,32.2,18.2,25.7,10,15.7c-1.5,2.7-2.3,5.7-2.3,8.8  c0,2.6,0.6,5.2,1.7,7.6l1.7,3.6l-3.6,1.6c0,0,0,0.1,0,0.1c0,5,2.1,9.7,5.7,13.1l2.4,2.3l-1.8,2.6c1.4,4.5,4.6,8.3,8.8,10.4l7.5,3.9  l-7.8,3.3c-4.5,1.9-9.4,2.9-14.3,2.9C6.9,76.1,5.7,76.1,4.5,76L4.5,76z M20.9,69.6c-5-2.6-9-7.1-10.8-12.8c-0.4-1.1-0.2-2.3,0.4-3.2  c-4.3-4-7-9.8-7-16c0-0.1,0-0.2,0-0.2c0-1.4,0.7-2.6,1.9-3.3c0.1-0.1,0.2-0.1,0.3-0.2c-1.3-2.9-2.1-6.1-2.1-9.3c0-3.9,1-7.7,3-11  c0.7-1.1,1.7-1.8,3-1.9C11,11.5,12.1,12,13,13c7.6,9.3,18.3,15.4,30.1,17.1C43.1,18,52.9,8.3,65,8.3c5.3,0,10.4,1.9,14.4,5.4  c2.9-0.8,5.8-1.9,8.4-3.5c1.4-0.8,3.1-0.7,4.4,0.3c1.3,1,1.8,2.6,1.3,4.2c-0.2,0.7-0.5,1.5-0.8,2.2c1,0.1,1.9,0.6,2.5,1.4  c1.1,1.3,1.2,3.2,0.3,4.6c-2.3,3.4-5.1,6.5-8.3,9.1c0,0.2,0,0.3,0,0.5c0,13.5-5.3,27.2-14.2,37.3c-10.6,12-25.2,18.1-41.1,18.1  c-10.6,0-20.9-3-29.9-8.7c-1.5-1-2.1-2.8-1.5-4.5c0.6-1.7,2.3-2.7,4-2.5c1.3,0.1,2.6,0.2,3.9,0.2C12.6,72.2,16.9,71.3,20.9,69.6z"/></svg>