<?xml version="1.0" ?><svg id="Layer_1" style="enable-background:new 0 0 96 96;" version="1.1" viewBox="0 0 96 96" xml:space="preserve" xmlns="http://www.w3.org/2000/svg" xmlns:xlink="http://www.w3.org/1999/xlink"><path d="M70,86.1C83.5,78.4,92,63.9,92,48C92,23.7,72.3,4,48,4C23.7,4,4,23.7,4,48s19.7,44,44,44c0.7,0,1.3,0,2,0V75  c-0.7,0-1.3,0-2,0c-3.4,0-6-2.6-6-6c0-2.7,0-5.3,0-8c0-3.4,2.6-6,6-6c0.7,0,1.3,0,2,0V45c0-9.2,6.8-16,16-16c4.7,0,9.3,0,14,0  c3.4,0,6,2.6,6,6c0,2.7,0,5.3,0,8c0,3.4-2.6,6-6,6c-3.3,0-6.7,0-10,0c0,2,0,4,0,6c0.7,0,1.3,0,2,0c3.4,0,6,2.6,6,6c0,2.7,0,5.3,0,8  c0,3.4-2.6,6-6,6c-0.7,0-1.3,0-2,0V86.1L70,86.1z M48,0c26.5,0,48,21.5,48,48c0,20.1-12.4,37.4-30,44.5V75c0-2.2,1.8-4,4-4  c0.7,0,1.3,0,2,0c1.2,0,2-0.8,2-2c0-2.7,0-5.3,0-8c0-1.2-0.8-2-2-2c-0.7,0-1.3,0-2,0c-2.2,0-4-1.8-4-4c0-2,0-4,0-6c0-2.2,1.8-4,4-4  c3.3,0,6.7,0,10,0c1.2,0,2-0.8,2-2c0-2.7,0-5.3,0-8c0-1.2-0.8-2-2-2c-4.7,0-9.3,0-14,0c-7,0-12,5-12,12v10c0,2.2-1.8,4-4,4  c-0.7,0-1.3,0-2,0c-1.2,0-2,0.8-2,2c0,2.7,0,5.3,0,8c0,1.2,0.8,2,2,2c0.7,0,1.3,0,2,0c2.2,0,4,1.8,4,4v20.6c-2,0.2-4,0.4-6,0.4  C21.5,96,0,74.5,0,48C0,21.5,21.5,0,48,0z"/></svg>